<svg xmlns="http://www.w3.org/2000/svg" viewBox="0 0 141.09 145.49"><defs><style>.cls-1{fill:#ff8500;}</style></defs><g id="Ebene_2" data-name="Ebene 2"><g id="Ebene_1-2" data-name="Ebene 1"><path class="cls-1" d="M70.64,81.18A14.17,14.17,0,1,1,84.81,67,14.17,14.17,0,0,1,70.64,81.18Zm0-19.2a5,5,0,1,0,5,5A5,5,0,0,0,70.64,62Z"/><path class="cls-1" d="M70.64,92.24a4.57,4.57,0,0,1-4.57-4.57V76.6a4.57,4.57,0,0,1,9.14,0V87.67A4.57,4.57,0,0,1,70.64,92.24Z"/><path class="cls-1" d="M116.23,118.63l-4.61,4.61a60.76,60.76,0,0,1-41.28,15.63C32.86,138.87,7,108,7,72.54v-.4C7,36.67,32.46,6.21,69.94,6.21c37.27,0,63.12,30.86,63.12,66.33v.4a72.09,72.09,0,0,1-3.46,22.12A9.3,9.3,0,0,1,135.86,98a77.63,77.63,0,0,0,4.22-25.24c.2-.2.2-.4,0-.4C140.08,34.07,112.62,0,70.14,0S0,34.07,0,72.34v.4C0,111,27.45,145.08,69.94,145.08a69.33,69.33,0,0,0,46.69-17.43l20,17.84,4.42-5-13.42-11.92L121.24,123Z"/><circle class="cls-1" cx="128.05" cy="106.5" r="8.13"/></g></g></svg>